<svg width="11" height="11" viewBox="0 0 11 11" fill="none" xmlns="http://www.w3.org/2000/svg">
<path d="M10.3125 4.8125C10.6792 4.8125 11 5.13333 11 5.5V8.9375C11 9.30417 10.6792 9.625 10.3125 9.625H8.9375C8.57083 9.625 8.25 9.30417 8.25 8.9375V5.5C8.25 5.13333 8.57083 4.8125 8.9375 4.8125H10.3125Z" fill="#AE0F0A"/>
<path d="M6.1875 1.375C6.55417 1.375 6.875 1.69583 6.875 2.0625V8.9375C6.875 9.30417 6.55417 9.625 6.1875 9.625H4.8125C4.44583 9.625 4.125 9.30417 4.125 8.9375V2.0625C4.125 1.69583 4.44583 1.375 4.8125 1.375H6.1875Z" fill="#4F81C1"/>
<path d="M2.0625 3.4375C2.42917 3.4375 2.75 3.75833 2.75 4.125V8.9375C2.75 9.30417 2.42917 9.625 2.0625 9.625H0.6875C0.320833 9.625 0 9.30417 0 8.9375V4.125C0 3.75833 0.320833 3.4375 0.6875 3.4375H2.0625Z" fill="#FFD400"/>
</svg>
