<svg width="61" height="33" viewBox="0 0 61 33" fill="none" xmlns="http://www.w3.org/2000/svg">
<path d="M22.1872 5.02047L32.1417 5.02114L21.066 16.1205H11L22.1872 5.02047Z" fill="#2D2D2D"/>
<path d="M19 23.8492L12 16.8099L32.635 16.7931L39.7527 23.9108L19 23.8492Z" fill="#2D2D2D"/>
<rect width="7.10097" height="22.7979" transform="matrix(0.707107 -0.707107 -0.707107 -0.707107 43.9137 26.7227)" fill="#2D2D2D"/>
<path fill-rule="evenodd" clip-rule="evenodd" d="M21.2223 4.83362L11.2121 4.83362L5.05259 10.9754L5.02115 10.9439L0 15.9651L10.8383 27.0709L21.1417 27.0644L10.0666 15.9893L21.2223 4.83362Z" fill="#34A853"/>
<path fill-rule="evenodd" clip-rule="evenodd" d="M39.0499 10.4396L49.1408 10.4639L60.1916 21.539L55.1704 26.5602L55.1595 26.5492L49.0329 32.6705H39L50.1404 21.5301L39.0499 10.4396Z" fill="#34A853"/>
</svg>
